<svg width="14" height="14" viewBox="0 0 14 14" fill="none" xmlns="http://www.w3.org/2000/svg">
<path d="M0.153992 0.153992H13.846V13.8461H0.153992V0.153992Z" fill="#F0DB4F"/>
<path d="M12.7255 10.5805C12.6252 9.95586 12.2178 9.43119 11.0113 8.94195C10.5922 8.74934 10.125 8.61142 9.98572 8.2938C9.93628 8.10895 9.92972 8.00483 9.961 7.89294C10.0508 7.52981 10.4842 7.41661 10.8278 7.52074C11.0491 7.59489 11.2585 7.76541 11.3848 8.03742C11.9757 7.65483 11.9745 7.65735 12.387 7.39441C12.236 7.16024 12.1554 7.05217 12.0565 6.95199C11.7012 6.55506 11.217 6.35064 10.4426 6.36628L10.0392 6.41845C9.65267 6.51613 9.2843 6.71902 9.06828 6.99103C8.42012 7.72647 8.60497 9.01359 9.39367 9.5433C10.1707 10.1265 11.3121 10.2592 11.4579 10.8045C11.5998 11.4721 10.9672 11.6883 10.3386 11.6115C9.87525 11.5151 9.61756 11.2796 9.33898 10.8514C8.82623 11.1482 8.82623 11.1482 8.29905 11.4513C8.42406 11.7247 8.55542 11.8484 8.76498 12.0852C9.7568 13.0912 12.2387 13.0418 12.6839 11.519C12.7019 11.4668 12.8218 11.1181 12.7255 10.5805ZM7.5974 6.44689H6.31673L6.31148 9.75789C6.31148 10.462 6.34791 11.1076 6.23339 11.3054C6.04603 11.6946 5.56051 11.6464 5.33925 11.5709C5.11405 11.4602 4.99953 11.3028 4.86686 11.0803C4.83044 11.0165 4.80309 10.967 4.79391 10.9632L3.75266 11.6009C3.9258 11.9562 4.18086 12.2647 4.50756 12.465C4.99559 12.7579 5.65151 12.8477 6.33751 12.6902C6.78398 12.5602 7.1692 12.2908 7.37089 11.8808C7.66248 11.3432 7.59992 10.6925 7.5973 9.97281C7.60386 8.79867 7.5974 7.62475 7.5974 6.44689Z" fill="#323330"/>
</svg>
