<svg width="14" height="14" viewBox="0 0 14 14" fill="none" xmlns="http://www.w3.org/2000/svg">
<g clip-path="url(#clip0_6_33)">
<path d="M4.51467 10.8226C4.51467 10.8226 3.79291 11.1332 5.02835 11.2382C6.52509 11.3646 7.29001 11.3465 8.93944 11.1155C8.93944 11.1155 9.37311 11.3167 9.97866 11.4909C6.28119 12.6634 1.61044 11.423 4.51467 10.8226ZM4.06284 9.29256C4.06284 9.29256 3.2533 9.73595 4.48968 9.83055C6.08852 9.95258 7.35115 9.96258 9.53602 9.6513C9.53602 9.6513 9.83823 9.87797 10.3134 10.0019C5.84287 10.9692 0.863515 10.0782 4.06284 9.29256Z" fill="#5382A1"/>
<path d="M7.87183 6.69714C8.78292 7.47321 7.63246 8.17159 7.63246 8.17159C7.63246 8.17159 9.9458 7.28801 8.88338 6.18153C7.89113 5.14973 7.13016 4.63699 11.2496 2.86935C11.2496 2.86935 4.78346 4.06425 7.87183 6.69714Z" fill="#E76F00"/>
<path d="M12.7621 11.9543C12.7621 11.9543 13.2962 12.2799 12.1738 12.5318C10.0396 13.0102 3.29082 13.1547 1.41602 12.5509C0.74211 12.334 2.00594 12.033 2.40346 11.9698C2.81805 11.9032 3.05501 11.9157 3.05501 11.9157C2.30552 11.525 -1.78937 12.6827 0.975024 13.0142C8.51386 13.9188 14.7176 12.6069 12.7621 11.9543ZM4.86172 7.70728C4.86172 7.70728 1.42893 8.31058 3.64613 8.5296C4.58227 8.62234 6.44848 8.60138 8.18683 8.49359C9.6075 8.40498 11.034 8.21642 11.034 8.21642C11.034 8.21642 10.5331 8.37516 10.1707 8.55825C6.68467 9.2366 -0.0496555 8.92104 1.88907 8.22715C3.52866 7.64076 4.86172 7.70728 4.86172 7.70728ZM11.0199 10.2541C14.5636 8.89162 12.9251 7.58234 11.7815 7.75875C11.5012 7.80189 11.3762 7.83927 11.3762 7.83927C11.3762 7.83927 11.4803 7.7187 11.679 7.6665C13.9414 7.07797 15.6814 9.40222 10.9487 10.3227C10.9487 10.3228 11.0035 10.2865 11.0199 10.2541Z" fill="#5382A1"/>
<path d="M8.88338 0.0150112C8.88338 0.0150112 10.846 1.46761 7.02198 3.70118C3.9556 5.49294 6.32275 6.51453 7.02073 7.68175C5.2308 6.4869 3.91721 5.43503 4.7985 4.45609C6.09191 3.01898 9.6752 2.3223 8.88338 0.0150112Z" fill="#E76F00"/>
<path d="M5.20997 13.946C8.61148 14.1071 13.8348 13.8566 13.9585 12.6658C13.9585 12.6658 13.7208 13.1172 11.1474 13.4757C8.24414 13.8799 4.66342 13.8328 2.53963 13.5737C2.53969 13.5737 2.97435 13.8399 5.20997 13.946Z" fill="#5382A1"/>
</g>
<defs>
<clipPath id="clip0_6_33">
<rect width="14" height="14" fill="white"/>
</clipPath>
</defs>
</svg>
