<svg width="14" height="14" viewBox="0 0 14 14" fill="none" xmlns="http://www.w3.org/2000/svg">
<path fill-rule="evenodd" clip-rule="evenodd" d="M6.99674 1.31473C6.10709 1.31505 5.22992 1.52407 4.43572 1.92498C3.64153 2.3259 2.95246 2.90753 2.4239 3.62314C1.89534 4.33875 1.54202 5.16838 1.39234 6.04535C1.24267 6.92232 1.3008 7.82217 1.56209 8.67259C1.82337 9.523 2.2805 10.3003 2.89676 10.9419C3.51301 11.5836 4.2712 12.0717 5.11038 12.3671C5.94956 12.6625 6.84633 12.7569 7.72862 12.6427C8.61092 12.5285 9.45413 12.209 10.1905 11.7097L5.24674 5.7571V9.84597C5.24674 10.02 5.1776 10.1869 5.05453 10.31C4.93146 10.4331 4.76454 10.5022 4.59049 10.5022C4.41644 10.5022 4.24952 10.4331 4.12645 10.31C4.00338 10.1869 3.93424 10.02 3.93424 9.84597V3.93973C3.93409 3.8047 3.97558 3.67292 4.05308 3.56234C4.13057 3.45176 4.24029 3.36779 4.36727 3.32186C4.49424 3.27593 4.6323 3.27028 4.7626 3.3057C4.8929 3.34111 5.0091 3.41585 5.09537 3.51973L11.6351 11.3947C11.7454 11.5272 11.7991 11.6977 11.7847 11.8694C11.7703 12.0412 11.6889 12.2004 11.5581 12.3126C10.2522 13.433 8.57942 14.0332 6.85911 13.9986C5.1388 13.9639 3.49151 13.2969 2.23178 12.1248C0.972052 10.9528 0.188144 9.35778 0.0297397 7.64443C-0.128664 5.93107 0.349534 4.2194 1.37303 2.83624C2.39652 1.45308 3.89359 0.495337 5.57839 0.145892C7.2632 -0.203553 9.01768 0.0797819 10.5068 0.941794C11.996 1.80381 13.1155 3.1841 13.6516 4.81912C14.1877 6.45414 14.1028 8.22933 13.4131 9.80572C13.3785 9.88472 13.3287 9.95613 13.2665 10.0159C13.2043 10.0756 13.131 10.1225 13.0507 10.154C12.9704 10.1854 12.8846 10.2006 12.7984 10.1989C12.7122 10.1972 12.6272 10.1785 12.5482 10.1439C12.4692 10.1093 12.3978 10.0595 12.338 9.99733C12.2783 9.93515 12.2313 9.8618 12.1999 9.78148C12.1685 9.70117 12.1533 9.61545 12.155 9.52923C12.1567 9.44301 12.1754 9.35797 12.21 9.27897C12.5243 8.56119 12.6858 7.78583 12.6842 7.00223C12.6842 5.49381 12.085 4.04717 11.0184 2.98056C9.95179 1.91395 8.50515 1.31473 6.99674 1.31473ZM9.18423 3.28348C9.35828 3.28348 9.5252 3.35262 9.64827 3.47569C9.77134 3.59876 9.84048 3.76568 9.84048 3.93973V6.56473C9.84048 6.73878 9.77134 6.9057 9.64827 7.02877C9.5252 7.15184 9.35828 7.22098 9.18423 7.22098C9.01019 7.22098 8.84327 7.15184 8.7202 7.02877C8.59713 6.9057 8.52799 6.73878 8.52799 6.56473V3.93973C8.52799 3.76568 8.59713 3.59876 8.7202 3.47569C8.84327 3.35262 9.01019 3.28348 9.18423 3.28348Z" fill="white"/>
</svg>
