<svg width="14" height="14" viewBox="0 0 14 14" fill="none" xmlns="http://www.w3.org/2000/svg">
<path d="M6.94072 0.00396729C3.39522 0.00396729 3.6166 1.54754 3.6166 1.54754L3.62054 3.14672H7.00394V3.62684H2.2767C2.2767 3.62684 0.00793457 3.36852 0.00793457 6.95994C0.00793457 10.5515 1.98817 10.4241 1.98817 10.4241H3.16997V8.75748C3.16997 8.75748 3.10626 6.76948 5.11859 6.76948H8.47432C8.47432 6.76948 10.3597 6.80006 10.3597 4.9402V1.86503C10.3597 1.86503 10.646 0.00396729 6.94072 0.00396729ZM5.07511 1.07939C5.15507 1.07931 5.23425 1.09507 5.30813 1.12575C5.38201 1.15644 5.44914 1.20144 5.50567 1.2582C5.56221 1.31496 5.60704 1.38235 5.6376 1.45652C5.66816 1.53069 5.68386 1.61018 5.68379 1.69045C5.68386 1.77071 5.66816 1.8502 5.6376 1.92437C5.60704 1.99854 5.56221 2.06593 5.50567 2.12269C5.44914 2.17945 5.38201 2.22445 5.30813 2.25514C5.23425 2.28582 5.15507 2.30158 5.07511 2.3015C4.99516 2.30158 4.91598 2.28582 4.8421 2.25514C4.76822 2.22445 4.70109 2.17945 4.64456 2.12269C4.58802 2.06593 4.54319 1.99854 4.51263 1.92437C4.48207 1.8502 4.46637 1.77071 4.46644 1.69045C4.46637 1.61018 4.48207 1.53069 4.51263 1.45652C4.54319 1.38235 4.58802 1.31496 4.64456 1.2582C4.70109 1.20144 4.76822 1.15644 4.8421 1.12575C4.91598 1.09507 4.99516 1.07931 5.07511 1.07939Z" fill="url(#paint0_linear_18_121)"/>
<path d="M7.04139 13.952C10.5869 13.952 10.3655 12.4084 10.3655 12.4084L10.3616 10.8093H6.97811V10.3292H11.7054C11.7054 10.3292 13.9741 10.5875 13.9741 6.99599C13.9741 3.40453 11.9939 3.5319 11.9939 3.5319H10.8121V5.19845C10.8121 5.19845 10.8758 7.18645 8.86346 7.18645H5.50773C5.50773 7.18645 3.62238 7.15587 3.62238 9.01578V12.091C3.62238 12.091 3.33609 13.952 7.04133 13.952H7.04139ZM8.90699 12.8767C8.82704 12.8768 8.74786 12.861 8.67398 12.8303C8.6001 12.7997 8.53297 12.7547 8.47644 12.6979C8.4199 12.6411 8.37507 12.5737 8.34451 12.4996C8.31395 12.4254 8.29825 12.3459 8.29832 12.2656C8.29824 12.1854 8.31393 12.1059 8.34449 12.0317C8.37505 11.9575 8.41988 11.8901 8.47642 11.8334C8.53295 11.7766 8.60008 11.7316 8.67397 11.7009C8.74785 11.6702 8.82704 11.6545 8.90699 11.6545C8.98695 11.6545 9.06613 11.6702 9.14001 11.7009C9.21389 11.7316 9.28102 11.7766 9.33755 11.8333C9.39409 11.8901 9.43892 11.9575 9.46948 12.0317C9.50004 12.1058 9.51574 12.1853 9.51567 12.2656C9.51574 12.3459 9.50004 12.4254 9.46948 12.4995C9.43892 12.5737 9.39409 12.6411 9.33755 12.6978C9.28102 12.7546 9.21389 12.7996 9.14001 12.8303C9.06613 12.861 8.98695 12.8768 8.90699 12.8767Z" fill="url(#paint1_linear_18_121)"/>
<defs>
<linearGradient id="paint0_linear_18_121" x1="134.223" y1="125.458" x2="829.027" y2="810.644" gradientUnits="userSpaceOnUse">
<stop stop-color="#387EB8"/>
<stop offset="1" stop-color="#366994"/>
</linearGradient>
<linearGradient id="paint1_linear_18_121" x1="201.723" y1="217.978" x2="947.729" y2="920.446" gradientUnits="userSpaceOnUse">
<stop stop-color="#FFE052"/>
<stop offset="1" stop-color="#FFC331"/>
</linearGradient>
</defs>
</svg>
