<svg width="14" height="14" viewBox="0 0 14 14" fill="none" xmlns="http://www.w3.org/2000/svg">
<path d="M11.5108 4.53768C11.3618 4.48023 11.2115 4.427 11.0602 4.37805C11.0856 4.26127 11.109 4.1459 11.1298 4.03255C11.4709 2.17129 11.2479 0.671817 10.4862 0.178119C9.75581 -0.295172 8.56138 0.198341 7.35509 1.37831C7.2362 1.49481 7.11995 1.61467 7.00645 1.73777C6.93047 1.65591 6.85315 1.57564 6.77452 1.497C5.51026 0.235344 4.24304 -0.296402 3.48212 0.19871C2.75242 0.673476 2.53635 2.08308 2.84348 3.84705C2.87403 4.02175 2.90853 4.19555 2.94695 4.36828C2.76757 4.42557 2.59448 4.48654 2.42884 4.55145C0.946586 5.13231 0 6.04256 0 6.98675C0 7.96191 1.0162 8.94003 2.56003 9.53312C2.68519 9.581 2.8114 9.62537 2.93852 9.66619C2.89724 9.85223 2.86058 10.0395 2.8286 10.2279C2.5358 11.9612 2.76445 13.3375 3.49218 13.8093C4.2438 14.2965 5.50534 13.7957 6.73367 12.5889C6.83328 12.4907 6.93069 12.3898 7.02581 12.2863C7.14873 12.4196 7.27492 12.549 7.40425 12.6744C8.59414 13.8251 9.76927 14.2898 10.4963 13.8168C11.2472 13.3282 11.4913 11.8497 11.1744 10.0508C11.1494 9.90992 11.1215 9.7697 11.0905 9.63029C11.1791 9.60079 11.266 9.57043 11.3508 9.53883C12.9557 8.9412 14 7.97494 14 6.98675C14 6.03912 13.0228 5.12272 11.5108 4.53768ZM11.1627 8.90081C11.0861 8.92927 11.0076 8.95675 10.9275 8.98348C10.7504 8.35302 10.5113 7.68267 10.2186 6.99001C10.4979 6.31388 10.7278 5.65207 10.9 5.02573C11.0432 5.07232 11.1822 5.12143 11.3162 5.17324C12.6117 5.67456 13.4019 6.41566 13.4019 6.98675C13.4019 7.59502 12.5485 8.38468 11.1627 8.90081ZM10.5877 10.1814C10.7278 10.9768 10.7478 11.6959 10.655 12.2582C10.5716 12.7634 10.404 13.1001 10.1966 13.2351C9.75543 13.5221 8.81191 13.149 7.79434 12.1648C7.67404 12.0482 7.55666 11.9279 7.44231 11.804C7.83683 11.3191 8.23107 10.7554 8.61585 10.1293C9.29266 10.0618 9.93207 9.9514 10.5119 9.80074C10.5399 9.92694 10.5651 10.0539 10.5877 10.1814ZM4.77291 13.1854C4.34186 13.3565 3.99853 13.3614 3.79099 13.2269C3.34939 12.9407 3.1658 11.8356 3.41622 10.3533C3.44599 10.1781 3.48007 10.0039 3.51843 9.83086C4.09188 9.97346 4.72664 10.076 5.40504 10.1378C5.79245 10.7505 6.19806 11.3136 6.60685 11.8066C6.51998 11.9011 6.43105 11.9932 6.34014 12.0827C5.79693 12.6164 5.25263 12.995 4.77291 13.1854ZM2.75352 8.89706C2.07085 8.63479 1.50708 8.29395 1.12066 7.92202C0.773391 7.58783 0.598117 7.25597 0.598117 6.98675C0.598117 6.41376 1.35811 5.68292 2.62571 5.18621C2.77955 5.12598 2.94055 5.06912 3.10762 5.01577C3.28284 5.65625 3.51263 6.32592 3.78995 7.0031C3.50902 7.69029 3.27595 8.37066 3.09903 9.0187C2.98299 8.98134 2.86778 8.94078 2.75352 8.89706ZM3.43044 3.71791C3.16734 2.20663 3.34206 1.06662 3.7818 0.780489C4.25015 0.475739 5.28582 0.910245 6.37744 1.99967C6.44862 2.07088 6.51865 2.14352 6.58749 2.21757C6.18073 2.7085 5.77883 3.26742 5.39487 3.87643C4.73643 3.94502 4.10616 4.05517 3.52669 4.20275C3.49099 4.04209 3.45889 3.88038 3.43044 3.71791ZM9.46941 5.39397C9.33254 5.12825 9.1906 4.86587 9.04367 4.60702C9.49036 4.67051 9.91834 4.75478 10.3202 4.8578C10.1996 5.29249 10.0492 5.74691 9.87219 6.21283C9.74279 5.93689 9.60851 5.66388 9.46941 5.39397ZM7.00673 2.69799C7.28257 3.03391 7.55885 3.40891 7.83059 3.81582C7.27934 3.78656 6.72717 3.78644 6.17591 3.81545C6.44793 3.41229 6.72656 3.03778 7.00673 2.69799ZM4.52823 5.39858C4.39088 5.66632 4.2591 5.93762 4.13301 6.21227C3.95888 5.74802 3.80986 5.29151 3.68818 4.85067C4.08762 4.75023 4.51358 4.66811 4.95742 4.60579C4.80886 4.86622 4.66576 5.1306 4.52823 5.39858ZM4.97016 9.41553C4.51161 9.358 4.07925 9.28012 3.67992 9.18239C3.80352 8.73368 3.95582 8.26746 4.13372 7.79325C4.26031 8.0681 4.39264 8.33957 4.53059 8.60743C4.67245 8.8828 4.81934 9.15252 4.97016 9.41553ZM7.02324 11.3228C6.73974 10.9791 6.45701 10.5988 6.18089 10.1898C6.44897 10.2016 6.72224 10.2076 7 10.2076C7.28536 10.2076 7.56744 10.2005 7.84509 10.1866C7.57247 10.6029 7.29723 10.9838 7.02324 11.3228ZM9.87782 7.76903C10.065 8.24847 10.2227 8.71223 10.3479 9.15325C9.94202 9.25738 9.50376 9.34122 9.04198 9.40348C9.18995 9.13983 9.33324 8.87289 9.47177 8.60282C9.6126 8.32831 9.74799 8.05031 9.87782 7.76903ZM8.95371 8.26697C8.74164 8.68103 8.51765 9.08723 8.28209 9.48493C7.8554 9.51889 7.42776 9.53577 7 9.53551C6.5643 9.53551 6.14053 9.52027 5.73245 9.49052C5.49075 9.09374 5.26248 8.68683 5.04815 8.27066C4.83482 7.85669 4.63562 7.43376 4.45085 7.00279C4.63515 6.57172 4.8338 6.14859 5.0464 5.73431C5.25891 5.31992 5.4853 4.91481 5.72518 4.51973C6.14152 4.48433 6.56846 4.46589 6.99995 4.46589C7.4334 4.46589 7.86095 4.48451 8.27717 4.52016C8.51463 4.91465 8.73963 5.31842 8.95174 5.73074C9.16505 6.14412 9.36633 6.56518 9.55527 6.99326C9.36827 7.42573 9.16762 7.85056 8.95371 8.26697ZM10.1875 0.760451C10.6562 1.06434 10.8386 2.2898 10.544 3.89683C10.5252 3.99936 10.5041 4.10379 10.4811 4.2097C9.90024 4.05898 9.26953 3.94693 8.60918 3.87729C8.22451 3.26158 7.82589 2.7018 7.42574 2.2172C7.53061 2.10358 7.63798 1.99291 7.74774 1.88529C8.78134 0.874348 9.74734 0.475186 10.1875 0.760451ZM7 5.58163C7.69043 5.58163 8.25016 6.21074 8.25016 6.98675C8.25016 7.76276 7.69043 8.39187 7 8.39187C6.30957 8.39187 5.74984 7.76276 5.74984 6.98675C5.74984 6.21074 6.30957 5.58163 7 5.58163Z" fill="#00D8FF"/>
</svg>
