<svg width="16" height="10" viewBox="0 0 16 10" fill="none" xmlns="http://www.w3.org/2000/svg">
<path d="M8 0C5.86669 0 4.53331 1.11113 4 3.33333C4.8 2.2222 5.73331 1.80553 6.8 2.08333C7.40856 2.2418 7.84356 2.70176 8.32506 3.21081C9.10944 4.04017 10.0172 5 12 5C14.1333 5 15.4667 3.88887 16 1.66667C15.2 2.7778 14.2667 3.19447 13.2 2.91667C12.5914 2.7582 12.1564 2.29824 11.6749 1.78919C10.8906 0.959831 9.98281 0 8 0ZM4 5C1.86669 5 0.533312 6.11113 0 8.33333C0.8 7.2222 1.73331 6.80553 2.8 7.08333C3.40856 7.2418 3.84356 7.70176 4.32506 8.21081C5.10944 9.04017 6.01719 10 8 10C10.1333 10 11.4667 8.88887 12 6.66667C11.2 7.7778 10.2667 8.19447 9.2 7.91667C8.59144 7.7582 8.15644 7.29824 7.67494 6.78919C6.89056 5.95983 5.98281 5 4 5Z" fill="url(#paint0_linear_6_59)"/>
<defs>
<linearGradient id="paint0_linear_6_59" x1="-44.448" y1="320" x2="1364.98" y2="1100.15" gradientUnits="userSpaceOnUse">
<stop stop-color="#2298BD"/>
<stop offset="1" stop-color="#0ED7B5"/>
</linearGradient>
</defs>
</svg>
